<?xml version="1.0" encoding="UTF-8"?><svg id="a" xmlns="http://www.w3.org/2000/svg" width="1080" height="1080" viewBox="0 0 1080 1080"><path d="M949.73,518.99v7.98c0,124.41-.08,248.82.19,373.23.02,7.47-2.04,8.97-9.15,8.96-138.34-.22-276.67-.24-415.01.05-8,.02-9.43-2.19-9.41-9.71.28-86.87.25-173.74.04-260.62-.01-5.98,1.75-8.69,7.32-11.11,38.21-16.63,76.21-33.73,114.28-50.67,8.01-3.57,10.1-2.77,13.24,5.31,4.26,10.96,8.57,21.9,12.57,32.95,1.37,3.79,3.24,5.22,7.47,5.2,41.29-.18,82.57-.15,123.86-.03,3.78.01,5.64-1.03,6.96-4.77,4.01-11.33,8.51-22.49,12.84-33.7,1.15-2.97,2.33-5.53,5.81-7.06,42.07-18.47,84.05-37.17,126.06-55.77.66-.29,1.52-.14,2.92-.23Z" fill="#000" stroke-width="0"/><path d="M850.95,522.21c-7.56-3.31-15.36-6.2-22.64-10.09-5.34-2.86-9.47-2.75-14.69.44-10.98,6.7-22.93,11.49-35.45,14.58-4.54,1.12-7.11,3.24-8.81,7.85-3.2,8.69-3.94,20.65-11.03,24.92-6.73,4.05-17.69,1.28-26.78,1.13-8.24-.14-18.3,3.25-24.19-1.37-5.46-4.28-7.08-13.97-9.43-21.58-2.12-6.86-5.83-10.19-12.97-11.88-11.97-2.83-23.25-8-33.83-14.33-3.85-2.31-6.91-2.71-11.07-.83-8.69,3.92-17.87,12.16-26.16,10.03-7.86-2.02-13.81-11.96-20.29-18.71-5.52-5.75-14.8-10.26-15.59-17.5-.73-6.69,4.74-14.43,8.49-21.14,3.82-6.83,3.52-12.35-.7-18.99-6.62-10.41-10.71-22.14-13.74-34.07-1.08-4.26-2.96-6.59-6.98-7.56-.52-.13-1.01-.35-1.5-.56-8.24-3.67-20.17-3.94-24.16-10.83-3.98-6.86-1.36-17.71-1.18-26.79.16-8.22-3.31-18.27,1.45-24.14,4.4-5.44,14.01-7.02,21.61-9.39,6.81-2.12,10.43-5.72,12.05-12.92,2.81-12.57,8.47-24.2,14.98-35.28,1.87-3.18,2.26-5.74.44-8.77-.27-.46-.54-.93-.73-1.43-3.31-8.66-11.61-17.44-9.67-25.45,1.85-7.61,11.6-13.37,18.04-19.79,5.86-5.84,11.28-14.97,18.08-16.22,6.75-1.25,15.21,5.1,22.5,8.9,5.79,3.02,10.33,3.09,16.14-.45,11.2-6.84,23.51-11.5,36.27-14.68,3.49-.87,5.48-2.42,6.67-5.93,2.49-7.33,5.76-14.39,8.21-21.73,1.47-4.39,3.4-6.36,8.48-6.2,13.66.44,27.34.42,41,0,4.77-.15,6.96,1.66,7.75,5.8,3.69,19.31,14.29,31.47,34.42,34.61,4.07.64,8.34,2.68,11.62,5.22,9.27,7.17,17.77,5.86,27.74.82,16.55-8.36,16.86-7.75,30.08,5.4,6.84,6.81,13.55,13.75,20.54,20.39,2.79,2.64,3.18,4.83,1.47,8.34-4.09,8.4-10.62,17.05-10.62,25.6,0,8.42,6.86,16.83,10.68,25.26.66,1.46,1.56,2.94,1.73,4.47,1.88,17.74,13.33,25.87,29.38,29.14,7.82,1.6,9.69,6.09,9.3,13.6-.64,12.3-.41,24.66-.05,36.98.14,4.6-1.36,7.05-5.68,7.94-18.65,3.86-31.51,13.35-34.22,33.68-.57,4.3-2.95,8.79-5.66,12.29-7.2,9.34-5.57,17.79-.54,27.71,8.34,16.45,7.71,16.78-5.16,29.65-6.82,6.82-13.61,13.68-20.5,20.44-1.45,1.42-2.49,3.63-5.13,3.42ZM847.07,366.64c.11-62.99-50.6-114.19-113.39-114.49-63.03-.29-114.7,51.01-114.87,114.06-.17,62.75,50.89,114.08,113.64,114.26,63.56.17,114.51-50.42,114.62-113.84Z" fill="none" stroke="#020202" stroke-miterlimit="10" stroke-width="19"/><path d="M334.11,386.61c0,22.5.2,43.41-.15,64.31-.08,4.68,1.77,6.59,5.55,8.33,23.31,10.69,46.48,21.71,69.84,32.29,15.1,6.83,22.11,18.19,22.47,34.7.88,39.4,2.34,78.79,3.39,118.19.37,13.96-6.08,24.31-18.5,30.39-12.19,5.97-24.03,4.24-34.69-4.01-9.2-7.11-12.21-17.14-12.5-28.37-.68-26.8-2.26-53.61-1.98-80.4.14-13.11-2.77-21.78-16.4-25.31-5.82-1.5-11.15-4.89-17.99-8,2.07,17.1-7.3,28.66-15.6,40.74-26.38,38.4-52.65,76.87-78.99,115.29-8.34,12.16-19.77,18.16-34.49,15.18-23.86-4.83-34.03-30.83-20.11-51.39,26.27-38.79,52.79-77.42,79.38-115.99,3.04-4.4,4.37-8.7,4.43-14.04.74-58.72,2.39-117.43,2.29-176.14-.04-24.37,22.36-43.68,48.75-32.37,21.11,9.04,42.8,16.71,64.13,25.24,5.06,2.02,9.29,2.16,14.39-.31,16.35-7.91,32.97-15.27,49.54-22.74,18.66-8.42,37.73-2.12,45.65,14.98,7.95,17.14.46,35.89-18.07,44.5-22.53,10.48-45.17,20.72-67.76,31.07-9.48,4.35-18.93,4.75-28.76.76-13.82-5.61-27.83-10.75-43.85-16.89Z" fill="none" stroke="#020202" stroke-miterlimit="10" stroke-width="19"/><path d="M348.05,810.01c0-30.83.13-61.66-.13-92.48-.04-5.29,1.36-6.73,6.65-6.69,32.16.24,64.33.26,96.49-.01,5.48-.05,6.55,1.69,6.53,6.79-.17,61.65-.18,123.31.02,184.96.02,5.32-1.46,6.58-6.63,6.54-32.16-.24-64.33-.25-96.49,0-5.33.04-6.6-1.47-6.56-6.64.24-30.83.12-61.65.12-92.48Z" fill="#000" stroke-width="0"/><path d="M179.47,847.37c0-18.22.19-36.44-.12-54.65-.09-5.27,1.4-6.72,6.68-6.68,32.14.25,64.29.25,96.43,0,5.3-.04,6.66,1.42,6.63,6.66-.23,36.7-.21,73.41-.01,110.11.03,4.82-1.05,6.38-6.15,6.34-32.41-.24-64.82-.22-97.24-.02-4.89.03-6.42-1.29-6.34-6.3.29-18.48.12-36.97.12-55.45Z" fill="#020202" stroke-width="0"/><path d="M315.36,170.92c30.59.08,55.24,24.83,55.02,55.23-.22,30.33-25.26,54.95-55.65,54.71-30.01-.23-54.55-24.9-54.64-54.94-.1-30.34,24.76-55.07,55.28-54.99Z" fill="none" stroke="#020202" stroke-miterlimit="10" stroke-width="19"/><path d="M702,366.45c-.01-17.21,13.8-31,31.05-31.01,17.21,0,31.21,13.88,31.22,30.95,0,17.01-14.12,31.13-31.18,31.16-17.12.03-31.07-13.94-31.09-31.11Z" fill="#020202" stroke-width="0"/></svg>