<?xml version="1.0" encoding="UTF-8"?><svg id="a" xmlns="http://www.w3.org/2000/svg" width="1080" height="1080" viewBox="0 0 1080 1080"><path d="M706.05,768.21c-16.98-71.2-60.36-119.16-128.94-144.44-3.87-1.43-7.05-2.21-7.03-7.93.24-83.1.21-166.2.06-249.3,0-5.24,1.89-6.29,6.59-6.17,11.11.29,22.24.2,33.35.06,10.89-.13,16.22-5.3,16.32-16.07.15-17.26.14-34.53.01-51.79-.08-11.34-5.27-16.29-16.89-16.39-11.12-.09-22.25-.31-33.35.11-5.51.21-6.19-2.24-6.01-6.75.18-4.28-.46-7.88,6.11-7.56,11.68.56,23.4.33,35.1.09,9.38-.19,14.86-5.44,14.99-14.7.25-18.14.23-36.28.02-54.42-.11-9.41-5.41-14.68-14.63-15.07-5.55-.23-11.13.17-16.67-.11-8.08-.41-18.81,3.6-23.45-1.69-3.98-4.53-1.24-15.01-1.36-22.86-.19-12.62-4.95-17.5-17.56-17.53-24.58-.06-49.16-.01-73.74-.01-17.2,0-21.12,3.89-21.12,20.93,0,152.15-.04,304.31.13,456.46,0,6.15-1.59,8.92-7.69,11.01-28.86,9.87-54.63,24.93-75.47,47.64-1.98,1.71-4.21,3.21-5.9,5.18-49.37,57.51-64.74,122.97-41.43,195.21,27.77,86.07,110.75,140.82,200.57,134.1,49.1-3.67,91.53-23.01,125.98-58.77,24.06-22.4,38.67-50.53,48.33-81.37,10.08-32.18,11.49-65.04,3.67-97.87ZM383.49,682.4c-1.61-1.61-3.14-3.31-4.59-5.08,1.45,1.78,2.98,3.47,4.59,5.08ZM593.53,958.64c-52.98,26.63-105.88,26.8-158.86-.05-4.11-2.08-5.03-4.77-4.96-8.98.22-14.02-.12-28.05.13-42.07.55-30.54,24.85-54.88,55.34-55.34,20.74-.31,41.48-.16,62.22-.21,26.61,4.54,43.34,19.9,50.37,45.92.19,17.52.27,35.05.67,52.57.1,4.11-1.35,6.38-4.92,8.17ZM529.18,820.98c-1.61.66-3.24,1.27-4.86,1.9h0c-28.49,7.33-59.65-17.86-50.91-53.25,10.65-22.43,28.21-33.12,47.98-29.2,18.91,3.75,33.04,19.19,34.62,37.82,1.57,18.55-9,35.39-26.83,42.73ZM639.76,922.14c-1.7,1.98-3.4,3.97-5.11,5.96-2.33,1.93-4.66,3.86-8.5,7.05v-14.49c2.49-43.9-13.73-71.7-53.8-90.89-6.04-2.89-2.67-4.85-.87-7.52,11.53-17.06,15.48-35.6,11.07-55.82-6.39-29.34-32.43-52.28-62.08-54.62-30.71-2.43-59.78,14.85-70.23,41.75-10.9,23.91-7.94,46.67,6.26,68.16,3.21,4.85,3.5,6.26-2.46,8.93-34.27,15.35-51.82,42.09-52.38,79.76-.11,7.6-.02,15.21-.02,23.86-6.82-4.19-11.29-9.79-15.84-15.13-52.49-61.62-53.68-151.95-2.9-214.95,3.6-4.47,7.48-8.72,11.23-13.06-1.93-1.29-3.79-2.67-5.56-4.12,1.77,1.45,3.63,2.82,5.56,4.12,18.93-18.14,40.48-32.08,65.36-40.63,3.81-1.31,7.68-2.45,11.58-3.48,11.87-3.12,14.87-6.84,14.88-19.02.02-38.34-.01-76.67,0-115.01,0-113.25.09-226.5-.16-339.75-.02-7.55,1.5-10.11,9.47-9.63,12.83.77,25.76.7,38.61.02,7.33-.39,8.96,2.34,8.38,8.87-.49,5.52-.16,11.11-.08,16.67.17,11.56,5.11,16.64,16.53,16.77,11.12.12,22.25.27,33.36-.08,4.99-.16,6.32,1.4,6.41,6.37.42,21.81.59,21.8-20.73,21.81-7.02,0-14.05-.2-21.07.07-8.85.34-14.24,5.53-14.42,14.35-.29,13.75-.28,27.51,0,41.26.19,9.18,5.69,14.34,15.16,14.51,11.7.22,23.41.26,35.11-.03,4.66-.12,5.8,1.41,5.94,5.95.68,22.24.83,22.23-21.17,22.23-4.1,0-8.19,0-12.29,0-20.19,0-22.84,2.6-22.84,22.38,0,89.84,0,179.68,0,269.52,0,1.46-.01,2.93,0,4.39.1,11.23,3.14,14.91,13.83,18.09,68.39,20.34,111.1,65.16,124,135.43,9.63,52.51-5.41,99.46-40.22,139.97Z" fill="#000" stroke-width="0"/></svg>