<?xml version="1.0" encoding="UTF-8"?><svg id="a" xmlns="http://www.w3.org/2000/svg" width="1080" height="1080" viewBox="0 0 1080 1080"><path d="M774.29,856.39c-18.75,28.74-36.62,56.16-54.51,83.57-10.58,16.21-20.07,16.37-31.1.48-9.55-13.74-19.19-27.42-28.49-41.32-2.51-3.75-5.16-5.27-9.73-5.26-47.25.16-94.51.24-141.76-.07-6.06-.04-7.78,3.24-10.19,7.41-38.54,66.78-95.24,108.62-171.46,121.96-113.9,19.94-224.82-43.4-266.59-151.22-55.81-144.02,37.63-303.75,190.67-326.02,26.76-3.89,53.42-3.61,79.93,1.8,4.91,1,7.87-.1,11.19-3.9,56.2-64.21,126.93-94.93,212.33-92.14,115.33,3.76,220.18,93.65,241.94,207.73q3.3,17.29,20.53,17.29c35.19,0,70.38.16,105.57-.13,7.63-.06,13.29,2.33,18.67,7.66,29.52,29.25,59.32,58.2,88.97,87.32,10.65,10.46,10.67,16.57.05,27-29.88,29.35-59.94,58.53-89.7,88.01-5.44,5.39-11.3,8.05-18.81,7.41-1.33-.11-2.68-.04-4.02-.01-12.03.19-25.95-3.29-35.55,1.63-9.62,4.94-14.93,18.27-22.13,27.93-1,1.34-1.99,2.69-2.99,4.04-12.1,16.43-20.06,16.3-32.16-.55-16.57-23.07-33.11-46.16-50.66-70.63ZM841.33,901.38c7.26-9.88,13.82-18.36,19.85-27.2,4.21-6.16,9.55-8.7,16.94-8.5,12.06.33,24.14-.15,36.19.2,5.14.15,8.73-1.53,12.33-5.11,23.56-23.36,47.19-46.66,71.13-69.61,4.93-4.72,5.37-7.07.1-12.09-23.32-22.16-46.26-44.72-68.98-67.5-4.89-4.9-9.71-6.83-16.62-6.82-136.08.2-272.16-.03-408.23.42-14.04.05-21.58-4.68-27.86-17.29-39.49-79.37-129.21-126.61-216.45-114.93-127.1,17.02-209.96,136.7-181.31,261.89,24.46,106.88,132.87,180.09,240.32,161.49,72.37-12.53,125.75-51.84,159.33-117.33,4.41-8.61,9.46-13.46,19.87-13.39,53.96.36,107.92.29,161.88.04,8.33-.04,13.82,3.04,18.29,9.82,8.05,12.21,16.59,24.1,25.48,36.93,2.38-3.35,4.35-5.96,6.14-8.7,15.93-24.36,31.81-48.75,47.73-73.12,11.74-17.98,19.96-18.21,32.33-.97,16.95,23.62,33.9,47.24,51.52,71.78ZM367.7,557.28c61.08,24.25,98.89,56.95,131.66,113.81,2.61,4.52,5.49,5.72,10.33,5.71,84.44-.12,168.88-.15,253.31.03,6.18.01,8.07-.97,6.81-7.74-24.82-133.92-163.69-219.05-294.36-180.26-42.05,12.48-77.65,35.03-107.76,68.45Z" fill="#040404" stroke="#000" stroke-miterlimit="10" stroke-width="7.24"/><path d="M541.58,157.91c70.29.18,127.75,57.65,127.77,127.79.02,70.54-57.85,128.12-128.63,128-70.17-.12-127.65-57.66-127.74-127.85-.09-70.53,57.8-128.12,128.6-127.94ZM540.97,385.51c54.88.07,99.6-44.28,100.13-99.29.52-54.46-44.44-99.78-99.27-100.08-55.4-.3-100.75,44.64-100.63,99.73.12,54.77,44.98,99.57,99.77,99.64Z" fill="#040404" stroke="#000" stroke-miterlimit="10" stroke-width="7.24"/><path d="M196.95,846.73c-20.31.02-38.04-6.59-52.39-21.16-22.72-23.05-22.57-57.93.14-81.03,26.15-26.59,71.41-28.59,99.43-3.95,17.02,14.97,25.1,33.71,19.84,56.52-5.74,24.9-22.76,39.21-46.22,46.82-6.72,2.18-13.74,2.8-20.8,2.8ZM194.77,818.56c24.37.08,42.79-15.07,42.59-33.74-.2-18.56-18.96-33.65-41.59-33.21-3.95.08-7.98.77-11.81,1.77-16.96,4.42-28.45,17.59-28.25,32.04.21,15.06,13.37,28.97,30.68,32.24,3.27.62,6.63.71,8.39.89Z" fill="#040404" stroke="#000" stroke-miterlimit="10" stroke-width="7.24"/></svg>