<?xml version="1.0" encoding="UTF-8"?><svg id="a" xmlns="http://www.w3.org/2000/svg" width="1080" height="1080" viewBox="0 0 1080 1080"><path d="M571.23,144.54c9.06,3.17,18.68,2.65,28,4.14,17.3,2.76,34.4,6.31,51.24,11.11,15.02,4.28,22.99,16.79,19.38,30.4-3.65,13.76-17.29,20.72-32.57,16.58-100.58-27.28-195.47-14.09-282.56,43.27-82.55,54.37-133.22,131.43-149.06,229.12-24.59,151.64,50.05,294.75,187.89,362.84,54.79,27.06,113.24,39.06,174.21,32.9,142.15-14.36,240.57-89.01,294.01-220.8,27.92-68.85,28.86-140.47,9.18-212.19-1.34-4.89-2.97-9.69-1.91-14.92,2.37-11.66,11.26-19.81,22.43-20.38,12.19-.62,21.95,6.3,25.49,18.56,5.5,19.02,9.79,38.35,12.21,58,11.26,91.58-5.33,177.72-54.59,255.99-65.23,103.65-159.07,165.84-280.69,182.35-200.43,27.21-386.88-102.87-432.33-299.79-3.83-16.58-6.3-33.4-8.01-50.33-.16-1.58.79-3.69-1.58-4.55v-65.55c2.11-.54,1.45-2.34,1.64-3.7,1.42-10.04,2.56-20.12,4.25-30.11,27.79-164.43,161.44-294.65,326.77-318.73,8.54-1.24,17.42-.71,25.61-4.19h60.98Z" fill="#020202" stroke-width="0"/><path d="M796.87,144.54c12.99,5.71,18.13,15.67,18.77,29.81,1.14,25.09,3.85,50.1,5.61,75.17.31,4.45,1.63,6,6.21,6.31,27.09,1.86,54.17,4.04,81.24,6.16,10.54.83,18.32,5.87,22.16,15.86,3.74,9.72,1.57,18.63-5.67,25.92-28.82,29-57.78,57.87-86.7,86.77-4.26,4.26-9.31,6.84-15.4,7.45-33.84,3.39-67.67,6.84-101.5,10.26-5.55.56-11.11,1.36-16.67,1.51-3.9.1-5.82,2.7-8.09,4.97-45.27,45.23-90.54,90.47-135.75,135.76-7.2,7.21-15.41,10.52-25.5,7.64-9.11-2.6-14.82-8.75-17-17.79-2.35-9.78,1.28-17.7,8.29-24.68,44.62-44.45,89.07-89.06,133.72-133.48,4.34-4.32,6.6-8.64,7.16-15,3.13-35.64,7.04-71.21,10.36-106.84.94-10.07,4.44-18.19,11.85-25.4,23.29-22.67,46.08-45.86,69.07-68.84,7.64-7.63,14.84-15.77,24.12-21.56h13.72ZM770.44,223.09c-14.81,14.99-28.13,28.54-41.57,41.96-2.03,2.02-2.31,4.31-2.56,6.84-2.8,27.49-5.59,54.99-8.5,82.47-.39,3.68-.07,5.49,4.52,4.99,27.73-3.02,55.47-5.84,83.23-8.55,3.31-.32,5.57-1.69,7.78-3.94,11.95-12.09,24.01-24.07,35.98-36.14,1.12-1.13,3.24-1.89,2.28-4.28-15.42-1.17-30.83-2.46-46.27-3.47-22.39-1.46-29.77-8.94-31.24-31.58-.99-15.37-2.31-30.72-3.65-48.31Z" fill="#020202" stroke-width="0"/><path d="M542.06,803.75c-133.68-.24-247.24-98.71-266.25-230.81-20.1-139.71,71.86-271.46,210.75-301.36,41.6-8.95,83.23-7.7,124.47,3.02,12.65,3.29,19.87,11.86,20.3,23.44.4,10.9-6.01,20.09-16.61,23.82-5.5,1.93-10.88,1.24-16.43-.15-102.1-25.43-205.05,20.85-252.4,113.37-65.16,127.32,8.17,283.02,148.19,314.63,122.24,27.59,243.02-52.93,264.98-176.62,5.63-31.73,4.18-63.16-3.63-94.37-3.84-15.35,2.82-28.59,16.12-32.18,14.33-3.87,27.03,4.37,31.17,20.24,39.54,151.19-58.85,305.1-212.89,332.92-15.77,2.85-31.72,4.11-47.76,4.04Z" fill="#020202" stroke-width="0"/><path d="M547.53,437.34c-53.71-1.22-96.02,35.57-102.42,87.54-5.9,47.84,27.6,93.96,76.44,105.27,57.89,13.4,116.16-31.42,118.23-90.91.11-3.29-.01-6.67.71-9.84,2.81-12.28,14.41-20.33,26.69-18.84,12.17,1.48,21.21,11.9,21.44,24.71,1.19,66.6-49.98,129.74-115.69,142.74-82.17,16.27-158.16-34.64-174.56-116.94-15.24-76.49,37.8-155.02,114.53-169.62,15.32-2.92,30.7-4.2,46.19-1.83,12.91,1.98,22.08,13.36,21.02,25.66-1.15,13.38-12.2,23-25.92,22.51-2.79-.1-5.57-.38-6.66-.45Z" fill="#020202" stroke-width="0"/></svg>