<?xml version="1.0" encoding="UTF-8"?><svg id="a" xmlns="http://www.w3.org/2000/svg" width="1080" height="1080" viewBox="0 0 1080 1080"><path d="M108.15,463.2c11.09,2.45,22.57,1.41,33.69,3.95,18.42,4.19,35.41,11.48,51.06,22.06,10.31,6.97,20.33,14.56,31.3,20.33,37.47,19.71,74.32,17.84,109.92-5.18,18.14-11.73,35.03-25.78,56.14-32.11,47.16-14.14,92.42-11.24,134.67,16.18,11.34,7.36,21.91,15.98,34.04,22.06,36.68,18.36,72.56,16.57,107.17-5.34,18.71-11.84,35.87-26.49,57.5-32.98,46.55-13.96,91.39-11.27,133.28,15.49,8.67,5.54,17.03,11.55,25.6,17.23,15.63,10.37,32.49,17.32,51.58,17.15,5.5-.05,7.47,1.52,7.24,7.34-.48,12.18-.33,24.4-.05,36.6.1,4.31-1.12,5.24-5.41,5.17-28.95-.48-55.38-8.63-79.34-24.93-10.07-6.85-19.89-14.22-30.58-19.94-37.96-20.33-75.26-18.43-111.32,5.11-18.09,11.82-35.07,25.82-56.19,32-46.57,13.64-91.45,11.03-133.26-15.95-11.14-7.19-21.65-15.53-33.33-21.66-37.46-19.66-74.32-17.79-109.92,5.27-18.13,11.74-35.04,25.74-56.15,32.1-46.88,14.13-91.9,11.23-133.99-15.8-13.42-8.62-25.97-18.62-40.43-25.6-13.68-6.6-28.04-9.54-43.22-8.12v-50.44Z" fill="#020202" stroke-width="0"/><path d="M108.15,751.19c12.2,2.35,24.74,1.64,36.93,4.69,17.01,4.25,32.61,11.23,47.19,20.87,11.06,7.3,21.46,15.67,33.37,21.61,36.99,18.43,73.07,16.62,107.86-5.68,18.64-11.95,35.9-26.54,57.55-32.87,46.89-13.71,91.97-10.84,133.92,16.58,11.32,7.4,21.9,15.98,34.05,22.05,36.69,18.32,72.56,16.47,107.18-5.38,18.49-11.67,35.39-26.21,56.74-32.68,47.39-14.37,92.92-11.68,135.36,16.15,10.63,6.97,21.14,14.15,31.93,20.86,13.64,8.47,28.64,12.74,44.71,12.62,4.9-.04,6.53,1.39,6.37,6.47-.38,12.46-.31,24.95-.03,37.41.1,4.38-1.25,5.23-5.48,5.16-28.65-.48-54.87-8.4-78.64-24.5-10.53-7.13-20.78-14.88-31.99-20.76-37.45-19.64-74.3-17.92-109.92,5.13-18.13,11.73-35.01,25.73-56.14,32.1-47.49,14.31-92.93,11.2-135.35-16.57-11.09-7.26-21.46-15.66-33.38-21.59-36.67-18.25-72.55-16.76-107.17,5.28-18.9,12.03-36.32,26.85-58.25,33.27-46.91,13.73-91.97,10.75-133.92-16.61-13.13-8.56-25.52-18.31-39.76-25.12-13.67-6.54-27.98-9.58-43.16-8.04v-50.44Z" fill="#020202" stroke-width="0"/><path d="M108.15,608.01c32.68-.2,62.3,9.02,89.09,27.95,16.29,11.52,32.3,23.88,52.63,27.93,29.93,5.96,58.06,2.43,83.8-15.16,17.62-12.03,34.53-25.6,55.24-32.1,48.28-15.14,94.5-11.78,137.57,16.79,10.82,7.18,21.23,15.22,32.75,21.04,36.5,18.45,72.49,16.68,107.07-5.44,18.87-12.07,36.34-26.65,58.29-33.19,47.03-14.01,91.98-10.48,133.88,16.78,7.94,5.17,15.7,10.61,23.54,15.93,16.03,10.88,33.55,17.51,53.07,17.72,4.91.05,6.42,1.27,6.25,6.34-.41,12.46-.3,24.94-.04,37.41.09,4.22-1.03,5.46-5.39,5.3-27.94-1-53.89-8.14-77.29-23.81-11.46-7.68-22.56-16.15-34.78-22.39-37.01-18.89-73.44-17.03-108.44,5.74-18.11,11.78-35.05,25.76-56.1,32.2-47.49,14.52-92.98,11.21-135.4-16.5-11.1-7.25-21.65-15.56-33.4-21.53-37.06-18.81-73.48-16.89-108.46,5.91-17.65,11.5-34.15,25.17-54.57,31.63-47.96,15.18-93.96,11.96-136.91-16.11-7.02-4.59-14.02-9.23-20.86-14.1-18.43-13.12-38.77-20.08-61.52-19.54v-48.81Z" fill="#020202" stroke-width="0"/><path d="M108.15,320.03c32.96-.1,62.79,9.26,89.75,28.48,16.03,11.42,31.92,23.5,51.96,27.46,29.91,5.91,58.04,2.41,83.81-15.16,17.4-11.86,34.08-25.23,54.49-31.79,48.54-15.6,94.95-12.16,138.3,16.5,10.83,7.16,21.25,15.17,32.76,21.02,36.51,18.57,72.5,16.63,107.07-5.45,18.44-11.77,35.46-26.15,56.75-32.7,47.45-14.61,92.98-11.38,135.42,16.32,8.16,5.33,16.17,10.88,24.25,16.33,15.84,10.68,33.15,17.1,52.38,17.27,4.95.05,6.4,1.31,6.24,6.36-.41,12.46-.31,24.94-.04,37.41.09,4.25-1.05,5.43-5.39,5.29-27.95-.95-53.89-8.14-77.3-23.79-11.24-7.52-22.14-15.76-34.08-21.98-37.52-19.58-74.37-17.47-109.83,5.76-18.3,11.99-35.53,25.92-56.96,32.25-46.75,13.81-91.46,10.48-133.16-16.56-11.35-7.36-22.11-15.85-34.1-21.94-37.04-18.81-73.48-16.94-108.46,5.9-17.87,11.67-34.6,25.51-55.33,31.93-47.71,14.78-93.49,11.59-136.16-16.4-6.79-4.45-13.55-8.96-20.16-13.68-18.63-13.3-39.18-20.49-62.21-20.02v-48.81Z" fill="#020202" stroke-width="0"/></svg>